<?xml version="1.0" encoding="utf-8"?>
<!-- Generator: Adobe Illustrator 26.5.1, SVG Export Plug-In . SVG Version: 6.00 Build 0)  -->
<svg version="1.1" xmlns="http://www.w3.org/2000/svg" xmlns:xlink="http://www.w3.org/1999/xlink" x="0px" y="0px"
	 viewBox="0 0 1920 1080" style="enable-background:new 0 0 1920 1080;" xml:space="preserve">
<style type="text/css">
	.st0{fill:none;}
	.st1{fill:#68505F;}
	.st2{fill:#C86469;}
	.st3{fill:#9B5A64;}
</style>
<g id="Layer_1_copy">
	<path class="st0" d="M861.81,563.45c3.02-31.85-6.42-57.06-7.5-59.84c-4.77-12.16-19.31-18.51-32.48-14.11
		c-13.16,4.41-19.98,17.78-15.22,29.94c0.07,0.19,7.06,19,4.56,41.35c-1.96,17.54-8.98,32.08-21.22,43.94l29,39.25
		C849.73,618.54,859.53,587.49,861.81,563.45z"/>
	<path class="st0" d="M774.56,616.64c-10.18-13.63-26.44-22.47-44.72-22.47c-24.23,0-45.54,15.47-53.05,38.5
		c-0.26,0.81-0.18,1.68,0.24,2.42c0.41,0.74,1.12,1.27,1.94,1.46l29.66,6.95c1.41,0.34,2.84-0.37,3.44-1.68
		c3.19-6.94,10.16-11.42,17.77-11.42c10.79,0,19.56,8.77,19.56,19.56s-8.77,19.56-19.56,19.56c-7.61,0-14.58-4.48-17.77-11.43
		c-0.6-1.31-2.03-2.01-3.44-1.68l-29.66,6.96c-0.83,0.19-1.53,0.72-1.94,1.46c-0.42,0.74-0.5,1.61-0.24,2.42
		c7.5,23.03,28.82,38.5,53.05,38.5c25.29,0,46.69-16.92,53.51-40.03c1.03-0.35,2.06-0.74,3.06-1.22
		c12.86-6.15,23.59-13.1,32.55-20.51l-29-39.25C785.52,609.05,780.4,613.02,774.56,616.64z"/>
	<g>
		<path class="st1" d="M477.36,564.12l-75.54-102.24c-3.5-3.9-6.77-8.25-9.78-13.12c0.02-0.01,0.04-0.03,0.05-0.04
			c13.59-10.18,22.4-26.4,22.4-44.64c0-24.21-15.46-45.51-38.47-53c-0.8-0.26-1.68-0.17-2.42,0.24c-0.74,0.41-1.27,1.12-1.46,1.94
			l-6.95,29.63c-0.32,1.4,0.37,2.84,1.68,3.43c6.93,3.18,11.42,10.15,11.42,17.75c0,6.33-3.04,11.94-7.71,15.52
			c-3.29,2.51-7.38,4.03-11.83,4.03c-10.78,0-19.54-8.77-19.54-19.54c0-6.34,3.15-12.21,8.21-15.84c1-0.72,2.06-1.38,3.21-1.91
			c1.31-0.6,2-2.04,1.68-3.43l-6.95-29.63c-0.19-0.82-0.72-1.53-1.46-1.94c-0.74-0.41-1.61-0.5-2.42-0.24
			c-5.71,1.86-10.96,4.58-15.62,7.97C311.74,369.33,303,385.88,303,404.08c0,25.27,16.91,46.65,40,53.47
			c0.34,1.03,0.74,2.05,1.22,3.06c27.24,56.95,69.94,72.4,100.97,75.34c3.8,0.36,7.48,0.5,11.07,0.54v27.64H477.36z"/>
		<path class="st1" d="M455.66,729.13c-29.85,0-67.47-18.15-84.02-40.54l-46.5-62.92c-16.55-22.39-5.76-40.54,24.09-40.54h143.65
			l106.39,144L455.66,729.13z"/>
	</g>
	<g>
		<polygon class="st2" points="749.17,383.78 626.72,383.78 647.26,411.58 724.98,411.58 		"/>
		<path class="st2" d="M811.18,560.8c2.5-22.35-4.49-41.17-4.56-41.35c-4.77-12.16,2.06-25.54,15.22-29.94
			c13.17-4.4,27.71,1.95,32.48,14.11c1.09,2.77,10.52,27.99,7.5,59.84c-2.28,24.04-12.09,55.09-42.85,80.54l60.02,81.24
			c18.04-7.58,30.71-25.42,30.71-46.21V529.53c0-8.78-2.31-17.41-6.69-25.02L842.77,400c-9.51-16.5-26.43-25.1-43.48-25.09
			c-13.78,0-27.64,5.61-37.74,17.21l-69.6,79.96l98.01,132.66C802.2,592.88,809.22,578.34,811.18,560.8z"/>
	</g>
	<g>
		<path class="st3" d="M487.84,519.05c0-4.52,1.63-8.88,4.6-12.29l73.74-84.73c-8.42-5.19-14.01-14.16-14.01-24.35
			c0-3.29,0.61-6.44,1.68-9.39c-0.8,0.81-1.59,1.63-2.35,2.51l-82.15,94.38c-6.31,0.75-13.68,1.05-21.52,0.17
			c-18.58-2.08-33.79-9.84-46.01-23.47l75.54,102.24h10.48V519.05z"/>
		<path class="st3" d="M582.91,383.78c-8.61,0-15.58,6.22-15.58,13.9c0,7.68,6.98,13.9,15.58,13.9h64.35l-20.54-27.8H582.91z"/>
	</g>
	<path class="st1" d="M1004.66,614.55c0-16.26,2.39-30.9,7.17-43.93c4.78-13.03,11.54-24.11,20.29-33.23
		c8.75-9.12,19.2-16.1,31.37-20.94c12.16-4.84,25.63-7.26,40.4-7.26c5.71,0,10.86,0.4,15.45,1.21c4.59,0.81,8.66,1.8,12.19,2.98
		c3.54,1.18,6.52,2.51,8.94,4c2.42,1.49,4.31,2.98,5.68,4.47c2.23,2.11,3.88,4.44,4.93,6.98c1.05,2.54,1.58,5.68,1.58,9.4
		c0,2.48-0.4,4.78-1.21,6.89c-0.81,2.11-1.89,3.94-3.26,5.49c-1.37,1.55-3.04,2.76-5.03,3.63c-1.99,0.87-4.16,1.3-6.52,1.3
		c-2.48,0-4.75-0.37-6.79-1.12c-2.05-0.74-4.28-1.58-6.7-2.51c-2.42-0.93-5.24-1.8-8.47-2.61c-3.23-0.81-7.14-1.21-11.73-1.21
		c-6.45,0-12.54,1.3-18.24,3.91c-5.71,2.61-10.67,6.45-14.89,11.54c-4.22,5.09-7.54,11.45-9.96,19.08
		c-2.42,7.63-3.63,16.47-3.63,26.53c0,9.18,1.24,17.31,3.72,24.39c2.48,7.07,5.89,13.03,10.24,17.87
		c4.34,4.84,9.56,8.53,15.64,11.08c6.08,2.54,12.72,3.82,19.92,3.82c4.84,0,8.9-0.37,12.19-1.12c3.29-0.74,6.14-1.55,8.56-2.42
		c2.42-0.87,4.59-1.68,6.52-2.42c1.92-0.74,3.88-1.12,5.86-1.12c2.23,0,4.28,0.44,6.14,1.3c1.86,0.87,3.41,2.05,4.65,3.54
		c1.24,1.49,2.2,3.2,2.89,5.12c0.68,1.92,1.02,3.94,1.02,6.05c0,3.23-0.56,6.08-1.68,8.56c-1.12,2.48-2.73,4.84-4.84,7.07
		c-1.86,1.86-4.31,3.69-7.35,5.49c-3.04,1.8-6.7,3.38-10.98,4.75c-4.28,1.36-9.21,2.48-14.8,3.35c-5.58,0.87-11.79,1.3-18.62,1.3
		c-13.78,0-26.25-2.14-37.42-6.42c-11.17-4.28-20.69-10.39-28.57-18.34c-7.88-7.94-13.96-17.53-18.24-28.76
		C1006.8,641.01,1004.66,628.45,1004.66,614.55z"/>
	<path class="st3" d="M1303.43,524.99c1.74-1.86,3.19-3.41,4.37-4.65c1.18-1.24,2.26-2.36,3.26-3.35c2.11-1.98,4.44-3.5,6.98-4.55
		c2.54-1.05,5.43-1.58,8.66-1.58c3.35,0,6.58,0.65,9.68,1.95c3.1,1.3,5.83,3.04,8.19,5.21c2.36,2.17,4.25,4.69,5.68,7.54
		c1.43,2.86,2.14,5.77,2.14,8.75c0,2.48-0.59,5.06-1.77,7.73c-1.18,2.67-3.26,5.49-6.24,8.47l-48.4,47l52.49,65.06
		c2.11,2.48,3.78,5.06,5.03,7.73c1.24,2.67,1.86,5.55,1.86,8.66c0,3.6-0.84,6.92-2.51,9.96c-1.68,3.04-3.82,5.68-6.42,7.91
		c-2.61,2.23-5.55,3.97-8.84,5.21c-3.29,1.24-6.61,1.86-9.96,1.86c-3.23,0-6.14-0.59-8.75-1.77c-2.61-1.18-4.96-2.83-7.07-4.94
		c-1.37-1.37-2.58-2.7-3.63-4c-1.06-1.3-2.27-2.89-3.63-4.75L1242,604.6v76.39c0,7.08-2.08,12.58-6.24,16.49
		c-4.16,3.92-10.52,5.87-19.08,5.87s-14.92-1.95-19.08-5.86c-4.16-3.91-6.24-9.4-6.24-16.47V448.5c0-7.07,2.08-12.57,6.24-16.47
		c4.16-3.91,10.52-5.86,19.08-5.86s14.92,1.95,19.08,5.86c4.16,3.91,6.24,9.4,6.24,16.47v143.82L1303.43,524.99z"/>
	<path class="st3" d="M1391.67,533.76c0-7.07,2.08-12.57,6.24-16.47c4.16-3.91,10.52-5.86,19.08-5.86c8.56,0,14.92,1.95,19.08,5.86
		c4.16,3.91,6.24,9.4,6.24,16.47v147.25c0,7.07-2.08,12.57-6.24,16.47c-4.16,3.91-10.52,5.86-19.08,5.86
		c-8.56,0-14.92-1.95-19.08-5.86c-4.16-3.91-6.24-9.4-6.24-16.47V533.76z"/>
	<path class="st2" d="M1490.14,550.51c-4.96,0-8.97-1.61-12.01-4.84c-3.04-3.23-4.56-7.94-4.56-14.15c0-6.08,1.52-10.73,4.56-13.96
		c3.04-3.23,7.04-4.84,12.01-4.84h16.38l5.96-31.46c1.36-7.07,3.94-12.29,7.73-15.64c3.78-3.35,8.84-5.03,15.17-5.03
		c6.45,0,11.42,1.77,14.89,5.31c3.47,3.54,5.21,8.66,5.21,15.36v31.46h31.46c4.96,0,8.96,1.61,12.01,4.84
		c3.04,3.23,4.56,7.88,4.56,13.96c0,6.21-1.52,10.92-4.56,14.15c-3.04,3.23-7.04,4.84-12.01,4.84h-31.46v89.54
		c0,8.81,1.49,15.08,4.47,18.8c2.98,3.72,7.57,5.58,13.78,5.58c2.23,0,4.19-0.12,5.86-0.37c1.68-0.25,3.19-0.56,4.56-0.93
		c1.36-0.37,2.61-0.68,3.72-0.93c1.12-0.25,2.3-0.37,3.54-0.37c1.98,0,3.82,0.37,5.49,1.12c1.68,0.74,3.1,1.77,4.28,3.07
		c1.18,1.3,2.11,2.89,2.79,4.75c0.68,1.86,1.02,3.91,1.02,6.14c0,3.48-0.56,6.42-1.68,8.84c-1.12,2.42-2.73,4.69-4.84,6.79
		c-1.24,1.24-2.95,2.54-5.12,3.91c-2.17,1.37-4.84,2.61-8,3.72c-3.16,1.12-6.86,2.05-11.08,2.79c-4.22,0.74-9,1.12-14.33,1.12
		c-18.86,0-32.76-4.5-41.7-13.5c-8.94-9-13.4-22.74-13.4-41.23v-98.85H1490.14z"/>
	<path class="st2" d="M1377.64,456.88c0-4.1,0.74-7.91,2.23-11.45c1.49-3.54,3.57-6.61,6.24-9.21c2.67-2.61,5.89-4.65,9.68-6.14
		c3.78-1.49,7.97-2.23,12.57-2.23c4.34,0,8.35,0.74,12.01,2.23c3.66,1.49,6.82,3.51,9.49,6.05c2.67,2.54,4.75,5.52,6.24,8.94
		c1.49,3.41,2.23,7.11,2.23,11.08c0,4.1-0.74,7.91-2.23,11.45s-3.6,6.61-6.33,9.21c-2.73,2.61-5.96,4.65-9.68,6.14
		s-7.88,2.23-12.47,2.23c-4.34,0-8.35-0.74-12.01-2.23c-3.66-1.49-6.83-3.51-9.49-6.05c-2.67-2.54-4.75-5.52-6.24-8.94
		C1378.39,464.54,1377.64,460.85,1377.64,456.88z"/>
	<path class="st3" d="M818.96,643.99c-8.96,7.42-19.69,14.36-32.55,20.51c-1,0.48-2.02,0.88-3.06,1.22
		c-6.82,23.11-28.22,40.03-53.51,40.03c-24.23,0-45.54-15.47-53.05-38.5c-0.26-0.81-0.18-1.68,0.24-2.42
		c0.41-0.74,1.12-1.27,1.94-1.46l29.66-6.96c1.41-0.33,2.84,0.38,3.44,1.68c3.19,6.94,10.16,11.43,17.77,11.43
		c10.79,0,19.56-8.77,19.56-19.56s-8.77-19.56-19.56-19.56c-7.61,0-14.58,4.48-17.77,11.42c-0.6,1.31-2.03,2.02-3.44,1.68
		l-29.66-6.95c-0.83-0.19-1.53-0.72-1.94-1.46c-0.42-0.74-0.5-1.61-0.24-2.42c7.5-23.03,28.82-38.5,53.05-38.5
		c18.28,0,34.54,8.84,44.72,22.47c5.84-3.62,10.96-7.59,15.41-11.9l-98.01-132.66l-10.01,11.5l-32.71-56.77h-20.67h-15.79
		l51.41,89.21c1.26,3.02,2.11,6.2,2.49,9.45v49.06c0,11.91-9.54,10.6-35.55,10.6H492.87l106.39,144h50.64c0,0,0.01,0,0.01,0h66.87
		h20.76h122.02c6.88,0,13.44-1.39,19.4-3.9L818.96,643.99z"/>
</g>
<g id="Layer_2">
</g>
</svg>
